# xmcd CD database file
#
# Track frame offsets:
#	150
#	14212
#	28774
#	44123
#	60881
#	80613
#	105320
#	117651
#	131778
#	163771
#	171070
#	194812
#	214155
#
# Disc length: 3025 seconds
#
# Revision: 1
# Processed by: cddbd v1.5PL3 Copyright (c) Steve Scherf et al.
# Submitted via: CDex 1.50
#
DISCID=c30bcf0d
DTITLE=Christy Riordan - The Blues
DYEAR=2002
DGENRE=Blues
TTITLE0=The Blues
TTITLE1=Lament over love
TTITLE2=Misery
TTITLE3=Swing low sweet chariot
TTITLE4=Good to be alive
TTITLE5=Devil knockin'
TTITLE6=Yesterday
TTITLE7=Dr. Feelgood
TTITLE8=Untitled
TTITLE9=Joy to the world
TTITLE10=Now the day is over
TTITLE11=Let me hold you
TTITLE12=Crossroads
EXTD=YEAR: 2002
EXTT0=
EXTT1=
EXTT2=
EXTT3=
EXTT4=
EXTT5=
EXTT6=
EXTT7=
EXTT8=
EXTT9=
EXTT10=
EXTT11=
EXTT12=
PLAYORDER=
